<mxfile host="Electron" modified="2023-10-25T11:45:51.026Z" agent="Mozilla/5.0 (X11; Linux x86_64) AppleWebKit/537.36 (KHTML, like Gecko) draw.io/22.0.2 Chrome/114.0.5735.289 Electron/25.8.4 Safari/537.36" etag="TNJDLGmxulMjoSLPWwWn" version="22.0.2" type="device">
  <diagram name="Page-1" id="qViSiRIcD_-ddjsiygZ2">
    <mxGraphModel dx="1242" dy="865" grid="1" gridSize="10" guides="1" tooltips="1" connect="1" arrows="1" fold="1" page="1" pageScale="1" pageWidth="850" pageHeight="1100" math="0" shadow="0">
      <root>
        <mxCell id="0" />
        <mxCell id="1" parent="0" />
        <mxCell id="4N66Dbb3Bsw2Mjw1kY2S-43" value="" style="rounded=0;whiteSpace=wrap;html=1;fillColor=#fff2cc;strokeColor=#d6b656;" parent="1" vertex="1">
          <mxGeometry x="650" y="390" width="120" height="70" as="geometry" />
        </mxCell>
        <mxCell id="4N66Dbb3Bsw2Mjw1kY2S-1" value="" style="rounded=0;whiteSpace=wrap;html=1;fillColor=#dae8fc;strokeColor=#6c8ebf;" parent="1" vertex="1">
          <mxGeometry x="60" y="220" width="310" height="230" as="geometry" />
        </mxCell>
        <mxCell id="4N66Dbb3Bsw2Mjw1kY2S-2" value="" style="rounded=0;whiteSpace=wrap;html=1;fillColor=#fff2cc;strokeColor=#d6b656;" parent="1" vertex="1">
          <mxGeometry x="410" y="270" width="120" height="130" as="geometry" />
        </mxCell>
        <mxCell id="4N66Dbb3Bsw2Mjw1kY2S-3" value="" style="ellipse;whiteSpace=wrap;html=1;aspect=fixed;fillColor=#f5f5f5;fontColor=#333333;strokeColor=#666666;" parent="1" vertex="1">
          <mxGeometry x="510" y="280" width="40" height="40" as="geometry" />
        </mxCell>
        <mxCell id="4N66Dbb3Bsw2Mjw1kY2S-4" value="signal-estimator" style="rounded=0;whiteSpace=wrap;html=1;fontStyle=1;fillColor=#F7FFF5;strokeColor=#9673a6;" parent="1" vertex="1">
          <mxGeometry x="80" y="305" width="120" height="60" as="geometry" />
        </mxCell>
        <mxCell id="4N66Dbb3Bsw2Mjw1kY2S-5" value="output&lt;br&gt;ALSA device" style="rounded=0;whiteSpace=wrap;html=1;fillColor=#f5f5f5;strokeColor=#666666;fontColor=#333333;fontStyle=1" parent="1" vertex="1">
          <mxGeometry x="230" y="240" width="120" height="50" as="geometry" />
        </mxCell>
        <mxCell id="4N66Dbb3Bsw2Mjw1kY2S-6" value="input&lt;br&gt;ALSA device" style="rounded=0;whiteSpace=wrap;html=1;fillColor=#f5f5f5;strokeColor=#666666;fontColor=#333333;fontStyle=1" parent="1" vertex="1">
          <mxGeometry x="230" y="380" width="120" height="50" as="geometry" />
        </mxCell>
        <mxCell id="4N66Dbb3Bsw2Mjw1kY2S-7" value="" style="ellipse;whiteSpace=wrap;html=1;aspect=fixed;fillColor=#f5f5f5;fontColor=#333333;strokeColor=#666666;" parent="1" vertex="1">
          <mxGeometry x="510" y="350" width="40" height="40" as="geometry" />
        </mxCell>
        <mxCell id="4N66Dbb3Bsw2Mjw1kY2S-8" value="" style="endArrow=classic;html=1;rounded=0;" parent="1" source="4N66Dbb3Bsw2Mjw1kY2S-4" target="4N66Dbb3Bsw2Mjw1kY2S-5" edge="1">
          <mxGeometry width="50" height="50" relative="1" as="geometry">
            <mxPoint x="200" y="220" as="sourcePoint" />
            <mxPoint x="250" y="170" as="targetPoint" />
          </mxGeometry>
        </mxCell>
        <mxCell id="4N66Dbb3Bsw2Mjw1kY2S-9" value="" style="endArrow=classic;html=1;rounded=0;fillColor=#e51400;strokeColor=#B20000;strokeWidth=2;" parent="1" source="4N66Dbb3Bsw2Mjw1kY2S-5" target="4N66Dbb3Bsw2Mjw1kY2S-3" edge="1">
          <mxGeometry width="50" height="50" relative="1" as="geometry">
            <mxPoint x="160" y="220" as="sourcePoint" />
            <mxPoint x="210" y="170" as="targetPoint" />
            <Array as="points">
              <mxPoint x="390" y="300" />
            </Array>
          </mxGeometry>
        </mxCell>
        <mxCell id="4N66Dbb3Bsw2Mjw1kY2S-10" value="" style="endArrow=classic;html=1;rounded=0;fillColor=#e51400;strokeColor=#B20000;strokeWidth=2;" parent="1" source="4N66Dbb3Bsw2Mjw1kY2S-7" target="4N66Dbb3Bsw2Mjw1kY2S-6" edge="1">
          <mxGeometry width="50" height="50" relative="1" as="geometry">
            <mxPoint x="160" y="220" as="sourcePoint" />
            <mxPoint x="210" y="170" as="targetPoint" />
            <Array as="points">
              <mxPoint x="390" y="370" />
            </Array>
          </mxGeometry>
        </mxCell>
        <mxCell id="4N66Dbb3Bsw2Mjw1kY2S-11" value="" style="endArrow=classic;html=1;rounded=0;" parent="1" source="4N66Dbb3Bsw2Mjw1kY2S-6" target="4N66Dbb3Bsw2Mjw1kY2S-4" edge="1">
          <mxGeometry width="50" height="50" relative="1" as="geometry">
            <mxPoint x="200" y="220" as="sourcePoint" />
            <mxPoint x="250" y="170" as="targetPoint" />
          </mxGeometry>
        </mxCell>
        <mxCell id="4N66Dbb3Bsw2Mjw1kY2S-12" value="PC" style="text;html=1;strokeColor=none;fillColor=none;align=center;verticalAlign=middle;whiteSpace=wrap;rounded=0;fontStyle=1;fontSize=16;" parent="1" vertex="1">
          <mxGeometry x="70" y="230" width="60" height="30" as="geometry" />
        </mxCell>
        <mxCell id="4N66Dbb3Bsw2Mjw1kY2S-13" value="sound&lt;br style=&quot;font-size: 16px;&quot;&gt;card" style="text;html=1;strokeColor=none;fillColor=none;align=center;verticalAlign=middle;whiteSpace=wrap;rounded=0;fontStyle=1;fontSize=16;" parent="1" vertex="1">
          <mxGeometry x="440" y="320" width="60" height="30" as="geometry" />
        </mxCell>
        <mxCell id="4N66Dbb3Bsw2Mjw1kY2S-14" value="" style="shape=image;verticalLabelPosition=bottom;labelBackgroundColor=default;verticalAlign=top;aspect=fixed;imageAspect=0;image=data:image/svg+xml,PHN2ZyB4bWxucz0iaHR0cDovL3d3dy53My5vcmcvMjAwMC9zdmciIHdpZHRoPSIyNCIgdmlld0JveD0iMCAtOTYwIDk2MCA5NjAiIGhlaWdodD0iMjQiPjxwYXRoIGQ9Ik0zNjAtMTIwSDIwMHEtMzMgMC01Ni41LTIzLjVUMTIwLTIwMHYtMjgwcTAtNzUgMjguNS0xNDAuNXQ3Ny0xMTRxNDguNS00OC41IDExNC03N1Q0ODAtODQwcTc1IDAgMTQwLjUgMjguNXQxMTQgNzdxNDguNSA0OC41IDc3IDExNFQ4NDAtNDgwdjI4MHEwIDMzLTIzLjUgNTYuNVQ3NjAtMTIwSDYwMHYtMzIwaDE2MHYtNDBxMC0xMTctODEuNS0xOTguNVQ0ODAtNzYwcS0xMTcgMC0xOTguNSA4MS41VDIwMC00ODB2NDBoMTYwdjMyMFptLTgwLTI0MGgtODB2MTYwaDgwdi0xNjBabTQwMCAwdjE2MGg4MHYtMTYwaC04MFptLTQwMCAwaC04MCA4MFptNDAwIDBoODAtODBaIi8+PC9zdmc+;" parent="1" vertex="1">
          <mxGeometry x="520" y="290" width="20" height="20" as="geometry" />
        </mxCell>
        <mxCell id="4N66Dbb3Bsw2Mjw1kY2S-15" value="" style="shape=image;verticalLabelPosition=bottom;labelBackgroundColor=default;verticalAlign=top;aspect=fixed;imageAspect=0;image=data:image/svg+xml,PHN2ZyB4bWxucz0iaHR0cDovL3d3dy53My5vcmcvMjAwMC9zdmciIHdpZHRoPSIyNCIgdmlld0JveD0iMCAtOTYwIDk2MCA5NjAiIGhlaWdodD0iMjQiPjxwYXRoIGQ9Ik00ODAtNDAwcS01MCAwLTg1LTM1dC0zNS04NXYtMjQwcTAtNTAgMzUtODV0ODUtMzVxNTAgMCA4NSAzNXQzNSA4NXYyNDBxMCA1MC0zNSA4NXQtODUgMzVabTAtMjQwWm0tNDAgNTIwdi0xMjNxLTEwNC0xNC0xNzItOTN0LTY4LTE4NGg4MHEwIDgzIDU4LjUgMTQxLjVUNDgwLTMyMHE4MyAwIDE0MS41LTU4LjVUNjgwLTUyMGg4MHEwIDEwNS02OCAxODR0LTE3MiA5M3YxMjNoLTgwWm00MC0zNjBxMTcgMCAyOC41LTExLjVUNTIwLTUyMHYtMjQwcTAtMTctMTEuNS0yOC41VDQ4MC04MDBxLTE3IDAtMjguNSAxMS41VDQ0MC03NjB2MjQwcTAgMTcgMTEuNSAyOC41VDQ4MC00ODBaIi8+PC9zdmc+;" parent="1" vertex="1">
          <mxGeometry x="520" y="360" width="20" height="20" as="geometry" />
        </mxCell>
        <mxCell id="4N66Dbb3Bsw2Mjw1kY2S-16" value="" style="rounded=0;whiteSpace=wrap;html=1;fillColor=#dae8fc;strokeColor=#6c8ebf;" parent="1" vertex="1">
          <mxGeometry x="790" y="200" width="320" height="110" as="geometry" />
        </mxCell>
        <mxCell id="4N66Dbb3Bsw2Mjw1kY2S-19" value="input&lt;br&gt;ALSA device" style="rounded=0;whiteSpace=wrap;html=1;fillColor=#f5f5f5;strokeColor=#666666;fontColor=#333333;fontStyle=1" parent="1" vertex="1">
          <mxGeometry x="810" y="240" width="120" height="50" as="geometry" />
        </mxCell>
        <mxCell id="4N66Dbb3Bsw2Mjw1kY2S-21" value="" style="endArrow=classic;html=1;rounded=0;strokeWidth=2;strokeColor=#CF0000;" parent="1" source="4N66Dbb3Bsw2Mjw1kY2S-19" target="4N66Dbb3Bsw2Mjw1kY2S-34" edge="1">
          <mxGeometry width="50" height="50" relative="1" as="geometry">
            <mxPoint x="920" y="220" as="sourcePoint" />
            <mxPoint x="960" y="304" as="targetPoint" />
          </mxGeometry>
        </mxCell>
        <mxCell id="4N66Dbb3Bsw2Mjw1kY2S-22" value="DUT &lt;font style=&quot;font-size: 11px; font-weight: normal;&quot;&gt;(Device Under Test)&lt;/font&gt;" style="text;html=1;strokeColor=none;fillColor=none;align=center;verticalAlign=middle;whiteSpace=wrap;rounded=0;fontStyle=1;fontSize=16;" parent="1" vertex="1">
          <mxGeometry x="890" y="200" width="140" height="30" as="geometry" />
        </mxCell>
        <mxCell id="4N66Dbb3Bsw2Mjw1kY2S-23" value="" style="rounded=0;whiteSpace=wrap;html=1;fillColor=#fff2cc;strokeColor=#d6b656;" parent="1" vertex="1">
          <mxGeometry x="650" y="230" width="120" height="70" as="geometry" />
        </mxCell>
        <mxCell id="4N66Dbb3Bsw2Mjw1kY2S-24" value="" style="ellipse;whiteSpace=wrap;html=1;aspect=fixed;fillColor=#f5f5f5;fontColor=#333333;strokeColor=#666666;" parent="1" vertex="1">
          <mxGeometry x="630" y="405" width="40" height="40" as="geometry" />
        </mxCell>
        <mxCell id="4N66Dbb3Bsw2Mjw1kY2S-25" value="" style="ellipse;whiteSpace=wrap;html=1;aspect=fixed;fillColor=#f5f5f5;fontColor=#333333;strokeColor=#666666;" parent="1" vertex="1">
          <mxGeometry x="630" y="245" width="40" height="40" as="geometry" />
        </mxCell>
        <mxCell id="4N66Dbb3Bsw2Mjw1kY2S-26" value="sound card" style="text;html=1;strokeColor=none;fillColor=none;align=center;verticalAlign=middle;whiteSpace=wrap;rounded=0;fontStyle=1;fontSize=16;" parent="1" vertex="1">
          <mxGeometry x="670" y="230" width="100" height="30" as="geometry" />
        </mxCell>
        <mxCell id="4N66Dbb3Bsw2Mjw1kY2S-27" value="" style="shape=image;verticalLabelPosition=bottom;labelBackgroundColor=default;verticalAlign=top;aspect=fixed;imageAspect=0;image=data:image/svg+xml,PHN2ZyB4bWxucz0iaHR0cDovL3d3dy53My5vcmcvMjAwMC9zdmciIHdpZHRoPSIyNCIgdmlld0JveD0iMCAtOTYwIDk2MCA5NjAiIGhlaWdodD0iMjQiPjxwYXRoIGQ9Ik0zNjAtMTIwSDIwMHEtMzMgMC01Ni41LTIzLjVUMTIwLTIwMHYtMjgwcTAtNzUgMjguNS0xNDAuNXQ3Ny0xMTRxNDguNS00OC41IDExNC03N1Q0ODAtODQwcTc1IDAgMTQwLjUgMjguNXQxMTQgNzdxNDguNSA0OC41IDc3IDExNFQ4NDAtNDgwdjI4MHEwIDMzLTIzLjUgNTYuNVQ3NjAtMTIwSDYwMHYtMzIwaDE2MHYtNDBxMC0xMTctODEuNS0xOTguNVQ0ODAtNzYwcS0xMTcgMC0xOTguNSA4MS41VDIwMC00ODB2NDBoMTYwdjMyMFptLTgwLTI0MGgtODB2MTYwaDgwdi0xNjBabTQwMCAwdjE2MGg4MHYtMTYwaC04MFptLTQwMCAwaC04MCA4MFptNDAwIDBoODAtODBaIi8+PC9zdmc+;" parent="1" vertex="1">
          <mxGeometry x="640" y="415" width="20" height="20" as="geometry" />
        </mxCell>
        <mxCell id="4N66Dbb3Bsw2Mjw1kY2S-28" value="" style="shape=image;verticalLabelPosition=bottom;labelBackgroundColor=default;verticalAlign=top;aspect=fixed;imageAspect=0;image=data:image/svg+xml,PHN2ZyB4bWxucz0iaHR0cDovL3d3dy53My5vcmcvMjAwMC9zdmciIHdpZHRoPSIyNCIgdmlld0JveD0iMCAtOTYwIDk2MCA5NjAiIGhlaWdodD0iMjQiPjxwYXRoIGQ9Ik00ODAtNDAwcS01MCAwLTg1LTM1dC0zNS04NXYtMjQwcTAtNTAgMzUtODV0ODUtMzVxNTAgMCA4NSAzNXQzNSA4NXYyNDBxMCA1MC0zNSA4NXQtODUgMzVabTAtMjQwWm0tNDAgNTIwdi0xMjNxLTEwNC0xNC0xNzItOTN0LTY4LTE4NGg4MHEwIDgzIDU4LjUgMTQxLjVUNDgwLTMyMHE4MyAwIDE0MS41LTU4LjVUNjgwLTUyMGg4MHEwIDEwNS02OCAxODR0LTE3MiA5M3YxMjNoLTgwWm00MC0zNjBxMTcgMCAyOC41LTExLjVUNTIwLTUyMHYtMjQwcTAtMTctMTEuNS0yOC41VDQ4MC04MDBxLTE3IDAtMjguNSAxMS41VDQ0MC03NjB2MjQwcTAgMTcgMTEuNSAyOC41VDQ4MC00ODBaIi8+PC9zdmc+;" parent="1" vertex="1">
          <mxGeometry x="640" y="255" width="20" height="20" as="geometry" />
        </mxCell>
        <mxCell id="4N66Dbb3Bsw2Mjw1kY2S-29" value="" style="endArrow=classic;html=1;rounded=0;fillColor=#e51400;strokeColor=#B20000;strokeWidth=2;" parent="1" source="4N66Dbb3Bsw2Mjw1kY2S-25" target="4N66Dbb3Bsw2Mjw1kY2S-19" edge="1">
          <mxGeometry width="50" height="50" relative="1" as="geometry">
            <mxPoint x="400" y="190" as="sourcePoint" />
            <mxPoint x="560" y="204" as="targetPoint" />
            <Array as="points" />
          </mxGeometry>
        </mxCell>
        <mxCell id="4N66Dbb3Bsw2Mjw1kY2S-31" value="" style="endArrow=classic;html=1;rounded=0;fillColor=#e51400;strokeColor=#B20000;strokeWidth=2;" parent="1" source="4N66Dbb3Bsw2Mjw1kY2S-24" target="4N66Dbb3Bsw2Mjw1kY2S-7" edge="1">
          <mxGeometry width="50" height="50" relative="1" as="geometry">
            <mxPoint x="420" y="210" as="sourcePoint" />
            <mxPoint x="580" y="224" as="targetPoint" />
            <Array as="points" />
          </mxGeometry>
        </mxCell>
        <mxCell id="4N66Dbb3Bsw2Mjw1kY2S-32" value="" style="endArrow=classic;html=1;rounded=0;fillColor=#e51400;strokeColor=#B20000;strokeWidth=2;entryX=0;entryY=0.5;entryDx=0;entryDy=0;exitX=1;exitY=0.5;exitDx=0;exitDy=0;" parent="1" source="4N66Dbb3Bsw2Mjw1kY2S-3" target="4N66Dbb3Bsw2Mjw1kY2S-25" edge="1">
          <mxGeometry width="50" height="50" relative="1" as="geometry">
            <mxPoint x="430" y="220" as="sourcePoint" />
            <mxPoint x="590" y="234" as="targetPoint" />
            <Array as="points" />
          </mxGeometry>
        </mxCell>
        <mxCell id="4N66Dbb3Bsw2Mjw1kY2S-33" value="jack&lt;br&gt;cables" style="text;html=1;strokeColor=none;fillColor=none;align=center;verticalAlign=middle;whiteSpace=wrap;rounded=0;" parent="1" vertex="1">
          <mxGeometry x="560" y="320" width="60" height="30" as="geometry" />
        </mxCell>
        <mxCell id="4N66Dbb3Bsw2Mjw1kY2S-34" value="network&lt;br&gt;sender" style="rounded=0;whiteSpace=wrap;html=1;fillColor=#f5f5f5;strokeColor=#666666;fontColor=#333333;fontStyle=1" parent="1" vertex="1">
          <mxGeometry x="970" y="240" width="120" height="50" as="geometry" />
        </mxCell>
        <mxCell id="4N66Dbb3Bsw2Mjw1kY2S-35" value="" style="rounded=0;whiteSpace=wrap;html=1;fillColor=#dae8fc;strokeColor=#6c8ebf;" parent="1" vertex="1">
          <mxGeometry x="790" y="360" width="320" height="110" as="geometry" />
        </mxCell>
        <mxCell id="4N66Dbb3Bsw2Mjw1kY2S-36" value="output&lt;br&gt;ALSA device" style="rounded=0;whiteSpace=wrap;html=1;fillColor=#f5f5f5;strokeColor=#666666;fontColor=#333333;fontStyle=1" parent="1" vertex="1">
          <mxGeometry x="810" y="400" width="120" height="50" as="geometry" />
        </mxCell>
        <mxCell id="4N66Dbb3Bsw2Mjw1kY2S-37" value="" style="endArrow=classic;html=1;rounded=0;strokeWidth=2;strokeColor=#CF0000;" parent="1" source="4N66Dbb3Bsw2Mjw1kY2S-39" target="4N66Dbb3Bsw2Mjw1kY2S-36" edge="1">
          <mxGeometry width="50" height="50" relative="1" as="geometry">
            <mxPoint x="1050" y="590" as="sourcePoint" />
            <mxPoint x="960" y="464" as="targetPoint" />
          </mxGeometry>
        </mxCell>
        <mxCell id="4N66Dbb3Bsw2Mjw1kY2S-39" value="network&lt;br&gt;receiver" style="rounded=0;whiteSpace=wrap;html=1;fillColor=#f5f5f5;strokeColor=#666666;fontColor=#333333;fontStyle=1" parent="1" vertex="1">
          <mxGeometry x="970" y="400" width="120" height="50" as="geometry" />
        </mxCell>
        <mxCell id="4N66Dbb3Bsw2Mjw1kY2S-30" value="" style="endArrow=classic;html=1;rounded=0;fillColor=#e51400;strokeColor=#B20000;strokeWidth=2;" parent="1" source="4N66Dbb3Bsw2Mjw1kY2S-36" target="4N66Dbb3Bsw2Mjw1kY2S-24" edge="1">
          <mxGeometry width="50" height="50" relative="1" as="geometry">
            <mxPoint x="410" y="200" as="sourcePoint" />
            <mxPoint x="570" y="214" as="targetPoint" />
            <Array as="points" />
          </mxGeometry>
        </mxCell>
        <mxCell id="4N66Dbb3Bsw2Mjw1kY2S-41" value="" style="endArrow=classic;html=1;rounded=0;strokeWidth=2;strokeColor=#CF0000;" parent="1" source="4N66Dbb3Bsw2Mjw1kY2S-34" target="4N66Dbb3Bsw2Mjw1kY2S-39" edge="1">
          <mxGeometry width="50" height="50" relative="1" as="geometry">
            <mxPoint x="940" y="275" as="sourcePoint" />
            <mxPoint x="980" y="275" as="targetPoint" />
          </mxGeometry>
        </mxCell>
        <mxCell id="4N66Dbb3Bsw2Mjw1kY2S-42" value="Ethernet&lt;br&gt;or Wi-Fi" style="text;html=1;strokeColor=none;fillColor=none;align=center;verticalAlign=middle;whiteSpace=wrap;rounded=0;" parent="1" vertex="1">
          <mxGeometry x="1030" y="320" width="60" height="30" as="geometry" />
        </mxCell>
        <mxCell id="4N66Dbb3Bsw2Mjw1kY2S-44" value="sound card" style="text;html=1;strokeColor=none;fillColor=none;align=center;verticalAlign=middle;whiteSpace=wrap;rounded=0;fontStyle=1;fontSize=16;" parent="1" vertex="1">
          <mxGeometry x="670" y="390" width="100" height="30" as="geometry" />
        </mxCell>
        <mxCell id="BkgR6BQGC-zBh1XBr6Q7-1" value="DUT &lt;font style=&quot;font-size: 11px; font-weight: normal;&quot;&gt;(Device Under Test)&lt;/font&gt;" style="text;html=1;strokeColor=none;fillColor=none;align=center;verticalAlign=middle;whiteSpace=wrap;rounded=0;fontStyle=1;fontSize=16;" parent="1" vertex="1">
          <mxGeometry x="880" y="360" width="140" height="30" as="geometry" />
        </mxCell>
      </root>
    </mxGraphModel>
  </diagram>
</mxfile>
